Later, Live With Jools Holland (BBC2, Gorillaz, , Bobby McFerrin,)s36eo3[DTV-RIP-Divx]

First Shown On BBC 2 On Tuesday 27th April 2010 




Description: 

Joining Jools for the third show of this series are Damon Albarn and Jamie Hewlett's multimillion-selling creation Gorillaz, who are making their live debut on the show playing tunes from their latest acclaimed album Plastic Beach, with a host of special guests.

Laura Marling, who at 20 has already seen herself compared to Bob Dylan and Joni Mitchell, is playing songs off her remarkable new album I Speak Because I Can. From Athens, Georgia, comes the band Drive-By Truckers, who have southern soul quite literally in their blood. The six-piece are performing a tune or two from their new album The Big To Do.

The multi-talented Mos Def is also in the studio, to play a number from his incredible The Ecstatic album as well as possibly joining in with one of the other acts. Making her UK TV debut is Michigan-born Diane Birch, who has been causing a stir in the US with her album Bible Belt over the last few months. And jazz legend Bobby McFerrin performs a number from his new VOCAbuLarieS album.  

General 
 
Complete name : Later, Live With Jools Holland.s36eo3.divx 
Format : AVI 
Format/Info : Audio Video Interleave 
File size : 310 MiB 
Duration : 28mn 50s 
Overall bit rate : 1 502 Kbps 

Video 
ID : 0 
Format : MPEG-4 Visual 
Format settings, BVOP : Yes 
Format settings, QPel : No 
Format settings, GMC : No warppoints 
Format settings, Matrix : Default (H.263) 
Muxing mode : Packed bitstream 
Codec ID : DX50 
Codec ID/Hint : DivX 5 
Duration : 28mn 50s 
Bit rate : 1 301 Kbps 
Width : 688 pixels 
Height : 384 pixels 
Display aspect ratio : 16:9 
Frame rate : 25.000 fps 
Resolution : 8 bits 
Colorimetry : 4:2:0 
Scan type : Progressive 
Bits/(Pixel*Frame) : 0.197 
Stream size : 268 MiB (87%) 
Title : Video  
Writing library : DivX 6.8.2 (UTC 2008-05-17) 

Audio 
ID : 1 
Format : AC-3 
Format/Info : Audio Coding 3 
Codec ID : 2000 
Duration : 28mn 50s 
Bit rate mode : Constant 
Bit rate : 192 Kbps 
Channel(s) : 2 channels 
Channel positions : Front: L R 
Sampling rate : 48.0 KHz 
Stream size : 39.6 MiB (13%) 
Alignment : Split accross interleaves 
Interleave, duration : 40 ms (1.00 video frame) 
Interleave, preload duration : 500 ms 

 
